# xmcd
#
# Track frame offsets: 
#        150
#        14225
#        25800
#        39137
#        55137
#        70262
#        83600
#        99475
#        114250
#        129037
#        144225
#        158125
#        171825
#        182725
#        196037
#        209737
#
# Disc length: 2976 seconds
#
# Revision: 3
# Processed by: cddbd v1.5.2PL0 Copyright (c) Steve Scherf et al.
# Submitted via: ExactAudioCopy v0.99pb4
#
DISCID=cb0b9e10
DTITLE=Various Artist - Ladies Sing the Blues
DYEAR=1900
DGENRE=
TTITLE0=That Old Feeling - Adelaide Hall
TTITLE1=It Must Be Love - Sally Gooding
TTITLE2=True Blue Lou - Ethel Waters
TTITLE3=Downhearted Blues - Mildred Bailey
TTITLE4=Stormy Weather - Ivie Anderson
TTITLE5=You Bring Out the Savage In Me - Valaiday Snow
TTITLE6=Out Of Nowhere - Lena Horne
TTITLE7=He May Be Your Man - Edith Wilson
TTITLE8=Mean Old Bed Bug Blues - Bessie Smith
TTITLE9=Black Eye Blues - Ma Rainey
TTITLE10=My Melacholy Baby - Ella Fitzgerald
TTITLE11=My Man - Billie Holiday
TTITLE12=It's Murder - Lil Armstrong
TTITLE13=Body and Soul - Sarah Vaughan 
TTITLE14=Evil Gal Blues - Dinah Washington
TTITLE15=Nobody Knows You When You're Down and Out - Bessie Smith
EXTD=
EXTT0=
EXTT1=
EXTT2=
EXTT3=
EXTT4=
EXTT5=
EXTT6=
EXTT7=
EXTT8=
EXTT9=
EXTT10=
EXTT11=
EXTT12=
EXTT13=
EXTT14=
EXTT15=
PLAYORDER=
